<svg width="26" height="24" viewBox="0 0 26 24" fill="none" xmlns="http://www.w3.org/2000/svg">
<path d="M3.12964 6H22.1296V4H3.12964V6ZM23.1296 7V21H25.1296V7H23.1296ZM22.1296 22H3.12964V24H22.1296V22ZM2.12964 21V7H0.129639V21H2.12964ZM3.12964 22C2.57735 22 2.12964 21.5523 2.12964 21H0.129639C0.129639 22.6569 1.47278 24 3.12964 24V22ZM23.1296 21C23.1296 21.5523 22.6819 22 22.1296 22V24C23.7865 24 25.1296 22.6569 25.1296 21H23.1296ZM22.1296 6C22.6819 6 23.1296 6.44771 23.1296 7H25.1296C25.1296 5.34315 23.7865 4 22.1296 4V6ZM3.12964 4C1.47278 4 0.129639 5.34315 0.129639 7H2.12964C2.12964 6.44772 2.57735 6 3.12964 6V4Z" fill="white"/>
<path d="M18.1296 9V2C18.1296 1.44772 17.6819 1 17.1296 1H8.12964C7.57735 1 7.12964 1.44772 7.12964 2V9" stroke="white" stroke-width="2" stroke-linejoin="round"/>
</svg>
