<svg width="24" height="22" viewBox="0 0 24 22" fill="none" xmlns="http://www.w3.org/2000/svg">
<path d="M21.047 2.52764C19.8359 1.23942 18.2306 0.453164 16.5209 0.310898C14.8112 0.168633 13.1099 0.679738 11.7244 1.75189C10.2707 0.604795 8.46145 0.0846477 6.66082 0.296192C4.86019 0.507737 3.20199 1.43526 2.02013 2.89198C0.838278 4.3487 0.220558 6.22641 0.291367 8.14699C0.362177 10.0676 1.11626 11.8884 2.40175 13.2427L9.49654 20.782C10.0906 21.4023 10.8908 21.75 11.7244 21.75C12.5579 21.75 13.3581 21.4023 13.9522 20.782L21.047 13.2427C22.3809 11.8188 23.1296 9.89274 23.1296 7.88516C23.1296 5.87758 22.3809 3.95154 21.047 2.52764ZM19.4361 11.57L12.3413 19.0972C12.2606 19.1837 12.1645 19.2523 12.0586 19.2992C11.9527 19.346 11.8391 19.3701 11.7244 19.3701C11.6096 19.3701 11.496 19.346 11.3902 19.2992C11.2843 19.2523 11.1882 19.1837 11.1074 19.0972L4.01265 11.5336C3.11667 10.5619 2.61495 9.25662 2.61495 7.89728C2.61495 6.53794 3.11667 5.23265 4.01265 4.26095C4.92566 3.30459 6.15705 2.76833 7.44008 2.76833C8.72311 2.76833 9.9545 3.30459 10.8675 4.26095C10.9737 4.37456 11.1001 4.46474 11.2393 4.52627C11.3785 4.58781 11.5279 4.61949 11.6787 4.61949C11.8295 4.61949 11.9788 4.58781 12.118 4.52627C12.2573 4.46474 12.3836 4.37456 12.4898 4.26095C13.4029 3.30459 14.6342 2.76833 15.9173 2.76833C17.2003 2.76833 18.4317 3.30459 19.3447 4.26095C20.253 5.21991 20.7712 6.51813 20.7883 7.87751C20.8054 9.23688 20.32 10.5493 19.4361 11.5336V11.57Z" fill="white"/>
</svg>
