<svg width="93" height="16" viewBox="0 0 93 16" fill="none" xmlns="http://www.w3.org/2000/svg">
<g clip-path="url(#clip0_6112_367)">
<path fill-rule="evenodd" clip-rule="evenodd" d="M1.12875 14.9396L1.37391 14.4166V0.458647L0.0901043 0.0738583C0.00613356 0.0487547 0.0733102 0.0520229 0.112581 0.0520229C1.03946 0.0546379 7.56619 0.0696735 7.56619 0.0696735C9.94456 0.058691 11.9216 0.961762 13.4195 2.30543C14.8786 3.61423 15.8897 5.33452 15.8897 7.52372C15.8897 9.25172 15.2738 10.4476 14.592 11.477C12.0644 15.2937 7.25395 14.9995 7.25395 14.9995H1.1665C1.13581 14.9995 1.11566 14.9675 1.12875 14.9396ZM64.7895 0.0479708V15.0048H76.4999V14.2149C73.5023 14.2149 70.5047 14.2149 67.5072 14.2149V7.75646H75.78V6.9276H67.4941V0.835069C70.4959 0.835069 73.4979 0.835069 76.4999 0.835069V0.0618296L64.7895 0.0479708ZM79.0657 15.0048V0.0479708H87.1056C87.8998 0.0479708 92.3774 0.610968 92.3774 3.69288C92.3774 6.25359 89.8159 7.52638 87.4765 7.52638H84.4056C84.4056 7.52638 84.3591 10.1508 88.7148 11.0277C90.0654 11.2996 91.0962 11.6714 91.7198 12.2121C93.1074 13.4152 92.925 15.0048 92.925 15.0048H89.1079C88.6199 14.1614 87.4428 13.0014 86.5627 12.2207C85.3623 11.1556 83.5342 9.13161 83.5342 7.04042H86.5528C86.9085 7.01085 87.9973 7.01013 88.8112 6.08525C89.2309 5.60848 89.4238 4.89382 89.4238 3.82297C89.4238 0.512515 85.8347 0.652546 85.6934 0.652546H81.6503V15.0048H79.0657ZM50.745 0.0479708H53.523V14.24H62.494V15.0032L50.745 15.0048V0.0479708ZM30.5574 15.0048H31.4197L34.0542 10.4013H43.2864L45.8787 14.9949H49.1059L40.4615 0.0479708H37.1003L38.4305 1.23999L30.5574 15.0048ZM34.3985 9.7997L38.7028 2.27892L42.9469 9.7997H34.3985ZM17.627 0.0479708V15.0048H29.3372V14.2149C26.3398 14.2149 23.3422 14.2149 20.3446 14.2149V7.75646H28.6175V6.9276H20.3315V0.835069C23.3334 0.835069 26.3353 0.835069 29.3372 0.835069V0.0618296L17.627 0.0479708ZM4.08721 0.391313C5.55389 0.391313 12.9103 0.0479708 12.9103 7.52638C12.9103 11.9611 10.1224 14.3853 7.13222 14.3853H4.14748L4.08721 0.391313Z" fill="white"/>
</g>
<defs>
<clipPath id="clip0_6112_367">
<rect width="93" height="15.0359" fill="white"/>
</clipPath>
</defs>
</svg>
