<svg width="17" height="16" viewBox="0 0 17 16" fill="none" xmlns="http://www.w3.org/2000/svg">
<path d="M15.4501 1.69499C14.5489 0.736312 13.3542 0.151192 12.0819 0.0453197C10.8095 -0.0605522 9.54347 0.319805 8.51236 1.11769C7.43059 0.264034 6.08414 -0.123053 4.74413 0.0343756C3.40413 0.191804 2.17012 0.882054 1.2906 1.96613C0.41108 3.0502 -0.0486183 4.44756 0.00407713 5.87683C0.0567725 7.3061 0.617948 8.6611 1.5746 9.66897L6.85444 15.2796C7.29657 15.7413 7.89203 16 8.51236 16C9.13269 16 9.72815 15.7413 10.1703 15.2796L15.4501 9.66897C16.4428 8.60932 17 7.17599 17 5.68198C17 4.18796 16.4428 2.75464 15.4501 1.69499ZM14.2513 8.42416L8.97148 14.0258C8.9114 14.0902 8.83989 14.1413 8.76108 14.1761C8.68228 14.211 8.59774 14.2289 8.51236 14.2289C8.42698 14.2289 8.34244 14.211 8.26364 14.1761C8.18483 14.1413 8.11332 14.0902 8.05324 14.0258L2.7734 8.3971C2.10663 7.67398 1.73325 6.7026 1.73325 5.691C1.73325 4.6794 2.10663 3.70802 2.7734 2.9849C3.45286 2.27318 4.36923 1.8741 5.32405 1.8741C6.27886 1.8741 7.19524 2.27318 7.8747 2.9849C7.95374 3.06944 8.04777 3.13655 8.15138 3.18234C8.25498 3.22814 8.36611 3.25172 8.47835 3.25172C8.59059 3.25172 8.70172 3.22814 8.80532 3.18234C8.90893 3.13655 9.00297 3.06944 9.082 2.9849C9.76146 2.27318 10.6778 1.8741 11.6327 1.8741C12.5875 1.8741 13.5038 2.27318 14.1833 2.9849C14.8592 3.69854 15.2449 4.66466 15.2576 5.67628C15.2703 6.68791 14.9091 7.66459 14.2513 8.3971V8.42416Z" fill="#BEBEBE"/>
</svg>
