<svg width="176" height="34" viewBox="0 0 176 34" fill="none" xmlns="http://www.w3.org/2000/svg">
<path d="M44.88 31V30.6L45.68 30.28C46.2133 30.0933 46.56 29.84 46.72 29.52C46.9067 29.2 47 28.7733 47 28.24V7.36C47 6.8267 46.92 6.4 46.76 6.08C46.6 5.76 46.24 5.5067 45.68 5.32L44.88 5V4.6H55.16V5L54.36 5.32C53.8267 5.5067 53.4667 5.76 53.28 6.08C53.12 6.4 53.04 6.8267 53.04 7.36V28.24C53.04 28.7733 53.12 29.2 53.28 29.52C53.4667 29.8133 53.8267 30.0667 54.36 30.28L55.16 30.6V31H44.88ZM56.8313 31V30.6L57.3913 30.44C58.3246 30.1733 58.7913 29.52 58.7913 28.48V15.96C58.7913 15.3733 58.6979 14.9467 58.5113 14.68C58.3246 14.3867 57.9646 14.1867 57.4313 14.08L56.8313 13.92V13.52L63.6713 11.2L64.0713 11.6L64.3913 14C65.3246 13.1733 66.3779 12.4933 67.5513 11.96C68.7246 11.4267 69.8846 11.16 71.0313 11.16C72.7913 11.16 74.1379 11.64 75.0713 12.6C76.0313 13.56 76.5113 15.0267 76.5113 17V28.52C76.5113 29.56 77.0179 30.2133 78.0313 30.48L78.3913 30.6V31H68.9513V30.6L69.4713 30.44C70.4046 30.1467 70.8713 29.4933 70.8713 28.48V15.72C70.8713 14.0133 70.0179 13.16 68.3113 13.16C67.1379 13.16 65.8579 13.7467 64.4713 14.92V28.52C64.4713 29.56 64.9379 30.2133 65.8713 30.48L66.2313 30.6V31H56.8313ZM87.3609 31.6C85.6543 31.6 84.3209 31.1733 83.3609 30.32C82.4276 29.4667 81.9609 28.1067 81.9609 26.24V12.56H79.2009V12.16L80.1609 12C80.9876 11.8133 81.6943 11.5467 82.2809 11.2C82.8943 10.8533 83.4943 10.3867 84.0809 9.8L87.3609 6.16H87.7609L87.6409 11.76H92.1209V12.56H87.6009V26.96C87.6009 27.8933 87.8009 28.6 88.2009 29.08C88.6276 29.56 89.1609 29.8 89.8009 29.8C90.3609 29.8 90.8543 29.6667 91.2809 29.4C91.7076 29.1067 92.1343 28.72 92.5609 28.24L92.9609 28.64C92.4276 29.5467 91.6943 30.2667 90.7609 30.8C89.8276 31.3333 88.6943 31.6 87.3609 31.6ZM104.137 11.16C105.87 11.16 107.35 11.52 108.577 12.24C109.804 12.9333 110.737 13.8933 111.377 15.12C112.044 16.32 112.377 17.6933 112.377 19.24C112.377 19.5333 112.364 19.84 112.337 20.16C112.31 20.4533 112.257 20.72 112.177 20.96H100.257C100.284 23.84 100.79 25.92 101.777 27.2C102.79 28.4533 104.284 29.08 106.257 29.08C107.59 29.08 108.67 28.8667 109.497 28.44C110.324 28.0133 111.097 27.3867 111.817 26.56L112.217 26.92C111.39 28.3867 110.284 29.5333 108.897 30.36C107.537 31.1867 105.897 31.6 103.977 31.6C102.084 31.6 100.404 31.2 98.9369 30.4C97.4702 29.5733 96.3235 28.4 95.4969 26.88C94.6702 25.36 94.2569 23.5467 94.2569 21.44C94.2569 19.2533 94.7369 17.4 95.6969 15.88C96.6569 14.3333 97.8835 13.16 99.3769 12.36C100.897 11.56 102.484 11.16 104.137 11.16ZM104.017 11.96C103.244 11.96 102.577 12.2 102.017 12.68C101.484 13.1333 101.057 13.96 100.737 15.16C100.444 16.3333 100.284 18 100.257 20.16H107.097C107.364 17.2533 107.257 15.16 106.777 13.88C106.297 12.6 105.377 11.96 104.017 11.96ZM114.37 31V30.6L114.97 30.44C115.504 30.28 115.864 30.04 116.05 29.72C116.264 29.4 116.37 28.9867 116.37 28.48V15.96C116.37 15.3733 116.264 14.9467 116.05 14.68C115.864 14.3867 115.504 14.1867 114.97 14.08L114.37 13.92V13.52L121.25 11.2L121.65 11.6L122.01 15.04V15.36C122.384 14.6133 122.864 13.9333 123.45 13.32C124.064 12.68 124.73 12.16 125.45 11.76C126.197 11.36 126.93 11.16 127.65 11.16C128.664 11.16 129.437 11.44 129.97 12C130.504 12.56 130.77 13.2667 130.77 14.12C130.77 15.0267 130.504 15.7333 129.97 16.24C129.464 16.72 128.85 16.96 128.13 16.96C127.01 16.96 126.024 16.4 125.17 15.28L125.09 15.2C124.824 14.8267 124.517 14.6267 124.17 14.6C123.824 14.5467 123.504 14.7067 123.21 15.08C122.944 15.32 122.717 15.6133 122.53 15.96C122.37 16.28 122.21 16.6533 122.05 17.08V28.24C122.05 29.3067 122.517 29.9733 123.45 30.24L124.73 30.6V31H114.37ZM132.027 31V30.6L132.587 30.44C133.52 30.1733 133.987 29.52 133.987 28.48V15.96C133.987 15.3733 133.893 14.9467 133.707 14.68C133.52 14.3867 133.16 14.1867 132.627 14.08L132.027 13.92V13.52L138.867 11.2L139.267 11.6L139.587 14C140.52 13.1733 141.573 12.4933 142.747 11.96C143.92 11.4267 145.08 11.16 146.227 11.16C147.987 11.16 149.333 11.64 150.267 12.6C151.227 13.56 151.707 15.0267 151.707 17V28.52C151.707 29.56 152.213 30.2133 153.227 30.48L153.587 30.6V31H144.147V30.6L144.667 30.44C145.6 30.1467 146.067 29.4933 146.067 28.48V15.72C146.067 14.0133 145.213 13.16 143.507 13.16C142.333 13.16 141.053 13.7467 139.667 14.92V28.52C139.667 29.56 140.133 30.2133 141.067 30.48L141.427 30.6V31H132.027ZM165.272 31.6C163.245 31.6 161.485 31.1867 159.992 30.36C158.498 29.5067 157.338 28.3067 156.512 26.76C155.712 25.2133 155.312 23.4 155.312 21.32C155.312 19.24 155.738 17.44 156.592 15.92C157.472 14.4 158.658 13.2267 160.152 12.4C161.672 11.5733 163.378 11.16 165.272 11.16C167.165 11.16 168.858 11.5733 170.352 12.4C171.845 13.2 173.018 14.36 173.872 15.88C174.752 17.4 175.192 19.2133 175.192 21.32C175.192 23.4267 174.778 25.2533 173.952 26.8C173.152 28.32 172.005 29.5067 170.512 30.36C169.045 31.1867 167.298 31.6 165.272 31.6ZM165.272 30.8C166.205 30.8 166.952 30.5333 167.512 30C168.072 29.4667 168.472 28.52 168.712 27.16C168.978 25.8 169.112 23.88 169.112 21.4C169.112 18.8933 168.978 16.96 168.712 15.6C168.472 14.24 168.072 13.2933 167.512 12.76C166.952 12.2267 166.205 11.96 165.272 11.96C164.338 11.96 163.578 12.2267 162.992 12.76C162.432 13.2933 162.018 14.24 161.752 15.6C161.512 16.96 161.392 18.8933 161.392 21.4C161.392 23.88 161.512 25.8 161.752 27.16C162.018 28.52 162.432 29.4667 162.992 30C163.578 30.5333 164.338 30.8 165.272 30.8Z" fill="#292F36"/>
<path d="M0 34.0003H13.4588V24.499C13.4588 22.4853 15.0898 20.8543 17.1035 20.8543C19.1172 20.8543 20.7482 22.4853 20.7482 24.499V34.0003H33.9975V0C15.2211 0 0 15.2211 0 34.0003Z" fill="#CDA274"/>
</svg>
