<svg width="15" height="22" viewBox="0 0 15 22" fill="none" xmlns="http://www.w3.org/2000/svg">
<path fill-rule="evenodd" clip-rule="evenodd" d="M12.2838 9.36228C11.0884 11.7658 8.17087 12.7451 5.7674 11.5496C3.36393 10.3542 2.38462 7.43674 3.58004 5.03326C4.77547 2.62979 7.69295 1.65048 10.0964 2.8459C12.4999 4.04133 13.4792 6.95881 12.2838 9.36228ZM5.5779 13.6423C8.81803 14.8304 12.5019 13.4147 14.0745 10.2529C15.7618 6.86048 14.3795 2.7425 10.9871 1.05517C7.59462 -0.632153 3.47664 0.750136 1.78931 4.1426C0.216726 7.30437 1.31047 11.0963 4.21288 12.9634L0.46013 20.5085L1.82515 21.1875L5.5779 13.6423Z" fill="white"/>
</svg>
