<svg width="15" height="22" viewBox="0 0 15 22" fill="none" xmlns="http://www.w3.org/2000/svg">
<path fill-rule="evenodd" clip-rule="evenodd" d="M12.2837 9.36228C11.0883 11.7658 8.17081 12.7451 5.76734 11.5496C3.36387 10.3542 2.38456 7.43674 3.57998 5.03326C4.77541 2.62979 7.69289 1.65048 10.0964 2.8459C12.4998 4.04133 13.4791 6.95881 12.2837 9.36228ZM5.57784 13.6423C8.81797 14.8304 12.5019 13.4147 14.0745 10.2529C15.7618 6.86048 14.3795 2.7425 10.987 1.05517C7.59456 -0.632153 3.47657 0.750136 1.78925 4.1426C0.216665 7.30437 1.31041 11.0963 4.21282 12.9634L0.460069 20.5085L1.82509 21.1875L5.57784 13.6423Z" fill="black"/>
</svg>
