<svg width="134" height="22" viewBox="0 0 134 22" fill="none" xmlns="http://www.w3.org/2000/svg">
<g clip-path="url(#clip0_6138_417)">
<path fill-rule="evenodd" clip-rule="evenodd" d="M1.62688 21.5262L1.98012 20.7726V0.6612L0.130332 0.106775C0.00934163 0.0706043 0.106134 0.0753136 0.162718 0.0753136C1.49821 0.0790806 10.9023 0.100744 10.9023 0.100744C14.3292 0.0849209 17.1778 1.38612 19.3362 3.32215C21.4384 5.20796 22.8954 7.68666 22.8954 10.841C22.8954 13.3308 22.0079 15.0538 21.0256 16.5371C17.3836 22.0364 10.4524 21.6125 10.4524 21.6125H1.68127C1.63704 21.6125 1.60802 21.5665 1.62688 21.5262ZM93.3532 0.0694733V21.6201H110.226V20.482C105.907 20.482 101.588 20.482 97.2689 20.482V11.1763H109.189V9.98206H97.25V1.20357C101.575 1.20357 105.901 1.20357 110.226 1.20357V0.0894413L93.3532 0.0694733ZM113.923 21.6201V0.0694733H125.508C126.652 0.0694733 133.103 0.880674 133.103 5.32127C133.103 9.0109 129.413 10.8448 126.042 10.8448H121.617C121.617 10.8448 121.55 14.6263 127.826 15.8898C129.772 16.2815 131.257 16.8172 132.156 17.5963C134.155 19.3298 133.892 21.6201 133.892 21.6201H128.392C127.689 20.405 125.993 18.7336 124.725 17.6086C122.996 16.074 120.362 13.1577 120.362 10.1446H124.711C125.223 10.102 126.792 10.101 127.965 8.76835C128.57 8.08139 128.848 7.05166 128.848 5.50872C128.848 0.738817 123.676 0.940582 123.473 0.940582H117.647V21.6201H113.923ZM73.1169 0.0694733H77.1197V20.5183H90.0457V21.6178L73.1169 21.6201V0.0694733ZM44.0294 21.6201H45.2719L49.0679 14.9872H62.3702L66.1053 21.6059H70.7553L58.2998 0.0694733H53.4569L55.3735 1.78701L44.0294 21.6201ZM49.564 14.1204L55.7658 3.28396L61.881 14.1204H49.564ZM25.3985 0.0694733V21.6201H42.2713V20.482C37.9524 20.482 33.6334 20.482 29.3143 20.482V11.1763H41.2343V9.98206H29.2954V1.20357C33.6206 1.20357 37.9461 1.20357 42.2713 1.20357V0.0894413L25.3985 0.0694733ZM5.88961 0.564182C8.00288 0.564182 18.6025 0.0694733 18.6025 10.8448C18.6025 17.2346 14.5855 20.7276 10.277 20.7276H5.97645L5.88961 0.564182Z" fill="black"/>
</g>
<defs>
<clipPath id="clip0_6138_417">
<rect width="134" height="21.6647" fill="white"/>
</clipPath>
</defs>
</svg>
