<svg width="36" height="32" viewBox="0 0 36 32" fill="none" xmlns="http://www.w3.org/2000/svg">
<path d="M35.0496 1.29727C34.2964 0.713375 33.2613 0.563121 32.3542 0.905985L1.63925 12.499C0.288136 13.0189 -0.356294 14.4645 0.199827 15.7275C0.48746 16.3808 1.06001 16.8878 1.77318 17.1209L8.39933 19.2745L11.9903 30.3746C11.9975 30.3972 12.0197 30.411 12.029 30.4327C12.0662 30.5212 12.1205 30.6027 12.189 30.6729C12.2145 30.7012 12.2424 30.7277 12.2721 30.7522C12.3615 30.8216 12.4654 30.873 12.5772 30.9029C12.5942 30.9076 12.6056 30.9218 12.623 30.9255L12.6331 30.9251L12.6381 30.9271C12.6953 30.939 12.7537 30.9448 12.8122 30.9443C12.8887 30.9417 12.9645 30.9294 13.0374 30.9076C13.0515 30.904 13.0657 30.905 13.0795 30.9006C13.2039 30.8597 13.3163 30.7923 13.4079 30.7036C13.4185 30.6937 13.4348 30.6919 13.445 30.6813L18.6113 25.352L26.1482 30.8081C26.6062 31.1429 27.1708 31.3247 27.752 31.3246C29.0093 31.3244 30.0945 30.501 30.3536 29.351L35.9469 3.67943C36.1407 2.7914 35.7957 1.87579 35.0496 1.29727ZM13.8653 21.3797L12.6529 26.8878L10.1246 19.0701L22.6645 12.9653L14.098 20.9743C13.9796 21.0851 13.8987 21.2261 13.8653 21.3797ZM28.6745 29.0285C28.6088 29.3236 28.3837 29.5655 28.0802 29.6671C27.7837 29.7737 27.4489 29.7262 27.1996 29.5419L19.0333 23.6303C18.6798 23.3744 18.1751 23.416 17.8748 23.7258L14.2823 27.4316L15.4926 21.9384L27.8157 10.4158C28.1506 10.1033 28.1512 9.59617 27.8169 9.28314C27.5525 9.03536 27.1466 8.97686 26.8146 9.13866L9.04878 17.7879L2.33401 15.6058C1.96801 15.4932 1.71909 15.1756 1.71459 14.8154C1.6969 14.4527 1.92657 14.1192 2.28713 13.9844L32.9971 2.39287C33.3179 2.26561 33.6881 2.31892 33.953 2.53061C34.2167 2.72958 34.3379 3.05053 34.2661 3.36014L28.6745 29.0285Z" fill="black"/>
</svg>
