<svg width="36" height="36" viewBox="0 0 36 36" fill="none" xmlns="http://www.w3.org/2000/svg">
<g clip-path="url(#clip0_6138_452)">
<mask id="mask0_6138_452" style="mask-type:luminance" maskUnits="userSpaceOnUse" x="0" y="0" width="36" height="36">
<path d="M35.8213 0H0.177734V35.6436H35.8213V0Z" fill="white"/>
</mask>
<g mask="url(#mask0_6138_452)">
<path fill-rule="evenodd" clip-rule="evenodd" d="M2.68328 2.50554C0.177734 5.01109 0.177734 9.0437 0.177734 17.1089V18.5347C0.177734 26.5999 0.177734 30.6325 2.68328 33.138C5.18883 35.6436 9.22143 35.6436 17.2866 35.6436H18.7124C26.7776 35.6436 30.8102 35.6436 33.3158 33.138C35.8213 30.6325 35.8213 26.5999 35.8213 18.5347V17.1089C35.8213 9.0437 35.8213 5.01109 33.3158 2.50554C30.8102 0 26.7776 0 18.7124 0H17.2866C9.22143 0 5.18883 0 2.68328 2.50554ZM6.19266 10.8417C6.3857 20.109 11.0193 25.6783 19.1431 25.6783H19.6036V20.3763C22.5887 20.6733 24.846 22.8565 25.7519 25.6783H29.9699C28.8115 21.4605 25.7667 19.1288 23.8658 18.2377C25.7667 17.1387 28.4401 14.4654 29.0786 10.8417H25.2469C24.4152 13.7823 21.9501 16.4555 19.6036 16.708V10.8417H15.7718V21.1188C13.3955 20.5248 10.3956 17.6436 10.2619 10.8417H6.19266Z" fill="black"/>
</g>
</g>
<defs>
<clipPath id="clip0_6138_452">
<rect width="36" height="35.6436" fill="white"/>
</clipPath>
</defs>
</svg>
