<svg width="139" height="63" viewBox="0 0 139 63" fill="none" xmlns="http://www.w3.org/2000/svg">
<path d="M45.5229 1.34399C44.7709 1.34399 44.0189 1.58571 43.2669 2.06914C42.5686 2.55256 42.2194 3.17028 42.2194 3.92228V62.9811C41.736 62.1754 41.0377 61.0206 40.1246 59.5166C39.2651 58.0126 38.1371 56.1863 36.7406 54.0377L13.536 19.1503C13.2137 18.7206 12.4886 17.5657 11.3606 15.6857C10.2326 13.752 8.67486 11.0394 6.68743 7.54799C6.79486 10.3411 6.87543 12.8389 6.92914 15.0411C7.03657 17.1897 7.09029 19.0966 7.09029 20.7617V56.2937C7.09029 56.992 7.41257 57.6097 8.05714 58.1469C8.70172 58.6303 9.4 58.872 10.152 58.872V59.9194C8.70172 59.8657 7.57372 59.8389 6.768 59.8389C5.96229 59.7851 5.47886 59.7583 5.31771 59.7583C5.10286 59.7583 4.59257 59.7851 3.78686 59.8389C3.03486 59.8389 1.96057 59.8657 0.564 59.9194V58.872C1.316 58.872 2.04114 58.6303 2.73943 58.1469C3.43771 57.6634 3.78686 57.0457 3.78686 56.2937V3.92228C3.78686 3.17028 3.46457 2.55256 2.82 2.06914C2.17543 1.58571 1.47714 1.34399 0.725143 1.34399V0.296563C3.84057 0.457707 5.61314 0.538279 6.04286 0.538279C6.31143 0.538279 7.86914 0.457707 10.716 0.296563L32.3897 33.8143C34.1623 36.5537 35.1291 38.1114 35.2903 38.4874L39.3994 46.5446C39.292 43.4291 39.1846 40.7434 39.0771 38.4874C39.0234 36.2314 38.9966 34.3783 38.9966 32.928V3.92228C38.9966 3.17028 38.6743 2.55256 38.0297 2.06914C37.3851 1.58571 36.6869 1.34399 35.9349 1.34399V0.296563C37.3851 0.35028 38.5131 0.403995 39.3189 0.457708C40.1246 0.457708 40.608 0.457708 40.7691 0.457708C40.984 0.457708 41.4674 0.457708 42.2194 0.457708C43.0251 0.403995 44.1263 0.35028 45.5229 0.296563V1.34399ZM59.9722 1.34399C59.2202 1.34399 58.4682 1.58571 57.7162 2.06914C57.0179 2.55256 56.6688 3.17028 56.6688 3.92228V56.3743C56.6688 57.1263 56.9911 57.744 57.6356 58.2274C58.2802 58.7109 58.9785 58.9526 59.7305 58.9526V60L52.6402 59.7583C52.0494 59.7583 49.7128 59.8389 45.6305 60V58.9526C46.3825 58.9526 47.1076 58.7109 47.8059 58.2274C48.5042 57.744 48.8534 57.1263 48.8534 56.3743V3.92228C48.8534 3.17028 48.5311 2.55256 47.8865 2.06914C47.2419 1.58571 46.5436 1.34399 45.7916 1.34399V0.296563C47.7791 0.35028 49.3368 0.403995 50.4648 0.457708C51.5928 0.457708 52.2911 0.457708 52.5596 0.457708C52.8282 0.457708 53.5534 0.457708 54.7351 0.457708C55.9705 0.403995 57.7162 0.35028 59.9722 0.296563V1.34399ZM101.718 59.9194L93.5806 59.7583C93.312 59.7583 92.56 59.7851 91.3246 59.8389C90.1429 59.8389 88.4777 59.8657 86.3291 59.9194V58.872C86.8663 58.872 87.3766 58.7109 87.86 58.3886C88.3971 58.0126 88.6657 57.5829 88.6657 57.0994C88.6657 56.8846 88.5851 56.6429 88.424 56.3743L73.2766 28.416L70.8594 29.7857C70.9669 30.6989 71.0474 31.612 71.1011 32.5251C71.1549 33.3846 71.1817 34.2171 71.1817 35.0229V56.2937C71.1817 57.0457 71.504 57.6634 72.1486 58.1469C72.7931 58.6303 73.4914 58.872 74.2434 58.872V59.9194L66.9114 59.7583C66.6429 59.7583 65.9446 59.7851 64.8166 59.8389C63.6886 59.8389 62.104 59.8657 60.0629 59.9194V58.872C60.8149 58.872 61.54 58.6303 62.2383 58.1469C62.9903 57.6634 63.3663 57.0457 63.3663 56.2937V3.92228C63.3663 3.17028 63.0171 2.55256 62.3189 2.06914C61.6743 1.58571 61.0029 1.34399 60.3046 1.34399V0.296563C62.292 0.35028 63.8497 0.403995 64.9777 0.457708C66.1057 0.457708 66.804 0.457708 67.0726 0.457708C67.3411 0.457708 68.0663 0.457708 69.248 0.457708C70.4834 0.403995 72.2023 0.35028 74.4046 0.296563V1.34399C73.6526 1.34399 72.9274 1.58571 72.2291 2.06914C71.5309 2.55256 71.1817 3.17028 71.1817 3.92228V21.1646C71.1817 22.776 71.1011 24.656 70.94 26.8046C72.3903 26.16 73.948 25.0857 75.6131 23.5817C77.332 22.024 79.0777 20.1977 80.8503 18.1029C82.6229 15.9543 84.3686 13.6177 86.0874 11.0931C87.8063 8.56856 89.3909 5.99028 90.8411 3.35828C91.1634 2.82114 91.3246 2.41828 91.3246 2.14971C91.3246 1.61256 90.8143 1.34399 89.7937 1.34399H89.1491V0.296563C90.5994 0.35028 91.7274 0.403995 92.5331 0.457708C93.3389 0.457708 93.8491 0.457708 94.064 0.457708C94.2251 0.457708 94.6817 0.457708 95.4337 0.457708C96.2394 0.403995 97.3406 0.35028 98.7371 0.296563V1.34399C97.824 1.34399 96.8303 1.58571 95.756 2.06914C94.6817 2.55256 93.9297 3.17028 93.5 3.92228C89.7937 10.6366 86.0874 16.1154 82.3811 20.3589L78.7554 23.9846C79.0777 24.4143 79.4806 25.032 79.964 25.8377C80.4474 26.6434 81.0383 27.5834 81.7366 28.6577L97.448 56.2937C97.824 56.9383 98.4417 57.5291 99.3011 58.0663C100.161 58.6034 100.966 58.872 101.718 58.872V59.9194ZM138.217 51.9429L137.572 59.9194H102.04V58.872C102.792 58.872 103.517 58.6303 104.215 58.1469C104.967 57.6097 105.343 56.992 105.343 56.2937V3.92228C105.343 3.22399 104.994 2.63313 104.296 2.14971C103.651 1.61256 102.953 1.34399 102.201 1.34399V0.296563H133.543L134.188 8.27314H133.463C133.087 6.984 132.738 5.93657 132.415 5.13085C132.147 4.32514 131.851 3.70742 131.529 3.27771C131.261 2.79428 130.965 2.47199 130.643 2.31085C130.321 2.09599 129.918 1.98857 129.434 1.98857H112.756C112.863 3.22399 112.944 4.37885 112.998 5.45314C113.051 6.52742 113.078 7.52114 113.078 8.43428V24.468C113.078 25.1663 113.051 25.8914 112.998 26.6434C112.944 27.3954 112.863 28.228 112.756 29.1411H127.823C129.488 29.1411 130.321 27.7983 130.321 25.1126V24.468H131.368L132.254 35.748H131.207C130.992 32.4714 129.998 30.8331 128.226 30.8331H112.756C112.863 31.7463 112.944 32.5789 112.998 33.3309C113.051 34.0291 113.078 34.6737 113.078 35.2646V52.1846C113.078 52.9366 113.025 53.6886 112.917 54.4406C112.81 55.1389 112.756 55.864 112.756 56.616C112.756 57.6903 113.642 58.2274 115.415 58.2274H133.463C133.946 58.2274 134.349 58.1469 134.671 57.9857C134.994 57.7709 135.289 57.4486 135.558 57.0189C135.88 56.5354 136.175 55.8909 136.444 55.0851C136.766 54.2794 137.115 53.232 137.491 51.9429H138.217Z" fill="black"/>
</svg>
